<svg width="276" height="65" viewBox="0 0 276 65" fill="none" xmlns="http://www.w3.org/2000/svg">
<path d="M64.9 64.1C63.9 64.1 63.3 63.8333 63.1 63.3C62.9 62.7 62.8 61.8 62.8 60.6C62.8667 60.1333 62.9 59.6 62.9 59C62.9 58.3333 62.9333 57.8333 63 57.5C63.4 54.3 63.6 51.2667 63.6 48.4C63.6 42.0667 62.5333 37.1333 60.4 33.6C58.2667 30 54.9 28.2 50.3 28.2C47.7667 28.2 45.2333 28.8333 42.7 30.1C40.2333 31.3667 38.2 32.9333 36.6 34.8C35.0667 36.6667 34.3 38.3667 34.3 39.9C34.6333 41.8333 35.2333 44.2 36.1 47C36.1667 47.3333 36.4333 48.3667 36.9 50.1C37.4333 51.8333 37.7 53.4 37.7 54.8L37.8 56.7C37.8 57.7667 37.2667 58.3 36.2 58.3C34.8667 58.3 33.7667 57.4333 32.9 55.7C32.1 53.9667 31.2 51.2667 30.2 47.6C29.2 44 28.2333 41.0333 27.3 38.7C26.3667 36.3667 25.1 34.3667 23.5 32.7C21.9 31.0333 19.8667 30.2 17.4 30.2C14 30.2 11.3333 31.3667 9.4 33.7C7.53333 36.0333 6.6 38.9 6.6 42.3C6.6 44.5667 6.8 47.5667 7.2 51.3C7.53333 54.1 7.7 56.5 7.7 58.5C7.7 59.7 7.56667 60.6 7.3 61.2C7.03333 61.8 6.4 62.1 5.4 62.1C4.06667 62.1 3.13333 61.6667 2.6 60.8C2.06667 59.8667 1.8 58.4667 1.8 56.6C1.8 52.9333 1.6 48.5 1.2 43.3C1.13333 42.6333 1 40.9333 0.8 38.2C0.6 35.4 0.566667 32.6 0.7 29.8L0.8 26.5C1.2 26.1 1.66667 25.9 2.2 25.9C2.93333 25.9 3.53333 26.3667 4 27.3C4.53333 28.1667 4.8 29.5 4.8 31.3C5.8 29.5667 7.26667 28 9.2 26.6C11.1333 25.2 13.1667 24.5 15.3 24.5C18.9667 24.5 22 25.2667 24.4 26.8C26.8667 28.2667 29.1 30.6667 31.1 34C32.9667 30.6 35.7667 27.7 39.5 25.3C43.3 22.9 47.2 21.7 51.2 21.7C55.3333 21.7 58.7667 23.2667 61.5 26.4C64.3 29.5333 66.3333 33.3 67.6 37.7C68.9333 42.1 69.6 46.1667 69.6 49.9C69.6 53.2333 69.3 56.4333 68.7 59.5C68.1667 62.5667 66.9 64.1 64.9 64.1ZM98.3367 64.1C94.4034 64.1 90.8367 63.2333 87.6367 61.5C84.5034 59.7 82.0367 57.2333 80.2367 54.1C78.5034 50.9 77.6367 47.2667 77.6367 43.2C77.6367 36.5333 80.0701 31.5667 84.9367 28.3C89.8701 25.0333 95.9034 23.4 103.037 23.4C106.303 23.4 109.337 24.2 112.137 25.8C115.003 27.4 117.303 29.7 119.037 32.7C120.77 35.7 121.637 39.1667 121.637 43.1C121.637 47.3667 120.537 51.1 118.337 54.3C116.137 57.4333 113.237 59.8667 109.637 61.6C106.103 63.2667 102.337 64.1 98.3367 64.1ZM97.2367 58.4C103.437 58.4 108.137 57 111.337 54.2C114.537 51.4 116.137 47.3 116.137 41.9C116.137 38.2333 114.87 35.0667 112.337 32.4C109.87 29.7333 106.403 28.4 101.937 28.4C98.9367 28.4 95.9034 28.9667 92.8367 30.1C89.7701 31.2333 87.2367 32.9333 85.2367 35.2C83.2367 37.4667 82.2367 40.2 82.2367 43.4C82.2367 46.0667 82.9034 48.5667 84.2367 50.9C85.5701 53.1667 87.3701 55 89.6367 56.4C91.9701 57.7333 94.5034 58.4 97.2367 58.4ZM146.79 64.1C144.857 64.1 142.323 61.2333 139.19 55.5C136.123 49.7 132.557 42.3667 128.49 33.5L125.59 27.3C125.59 26.6333 125.99 26 126.79 25.4C127.59 24.7333 128.79 24.4333 130.39 24.5C130.79 25.2333 132.057 27.9333 134.19 32.6C136.723 38.0667 138.857 42.5667 140.59 46.1C142.39 49.5667 144.557 53.3 147.09 57.3C148.223 53.1667 149.49 49.3 150.89 45.7C152.357 42.0333 154.523 36.8667 157.39 30.2L158.89 26.7C159.29 25.9 160.057 25.5 161.19 25.5C161.99 25.5 162.69 25.7 163.29 26.1C163.89 26.5 164.19 27.0667 164.19 27.8C164.19 28.4667 163.857 29.1667 163.19 29.9C162.723 30.3667 162.057 31.7333 161.19 34C160.323 36.2 159.423 38.6667 158.49 41.4C155.957 48.6 153.757 54.2333 151.89 58.3C150.023 62.3 148.323 64.2333 146.79 64.1ZM174.864 64.1C173.331 64.1 172.097 61.8667 171.164 57.4C170.231 52.8667 169.631 48.9667 169.364 45.7C169.097 42.4333 168.731 37.2667 168.264 30.2C168.197 29.0667 168.164 27.6 168.164 25.8C168.164 23.5333 168.331 21.9667 168.664 21.1C169.064 20.2333 169.697 19.8 170.564 19.8C171.297 19.8 171.864 19.9667 172.264 20.3C172.731 20.5667 173.131 21.0333 173.464 21.7L173.364 25.7C173.364 29.9667 173.564 34 173.964 37.8C174.431 41.6 175.131 46.7 176.064 53.1C176.597 55.9 176.964 58.2 177.164 60C177.297 60.9333 177.131 61.8667 176.664 62.8C176.197 63.6667 175.597 64.1 174.864 64.1ZM172.364 9.1C170.897 9.1 169.797 8.53333 169.064 7.4C168.397 6.26666 168.064 4.86667 168.064 3.2C168.064 2.46666 168.097 1.93333 168.164 1.6C168.097 0.53333 168.697 -4.52995e-06 169.964 -4.52995e-06C170.897 -4.52995e-06 171.831 0.23333 172.764 0.699998C173.764 1.1 174.064 1.4 173.664 1.6C174.331 3.33333 174.664 4.7 174.664 5.7C174.664 6.56666 174.464 7.26666 174.064 7.8C173.664 8.26666 173.097 8.7 172.364 9.1ZM209.733 64C205.466 64 201.533 63.1667 197.933 61.5C194.333 59.8333 191.466 57.4667 189.333 54.4C187.199 51.3333 186.133 47.8 186.133 43.8C186.133 39.3333 186.966 35.1667 188.633 31.3C190.299 27.3667 192.733 24.2333 195.933 21.9C199.199 19.5 202.999 18.3 207.333 18.3C211.866 18.3 215.299 19.7667 217.633 22.7C219.966 25.5667 221.066 29.2 220.933 33.6C220.933 37.5333 219.366 40.5333 216.233 42.6C213.166 44.6667 209.233 45.7 204.433 45.7C203.699 45.7 202.599 45.6333 201.133 45.5C198.733 45.2333 197.033 44.8667 196.033 44.4C195.033 43.9333 194.533 43 194.533 41.6C194.533 41.1333 194.666 40.8 194.933 40.6C195.199 40.3333 195.733 40.2 196.533 40.2C197.399 40.2 198.933 40.4 201.133 40.8C203.266 41.2 205.166 41.4 206.833 41.4C212.966 41.4 216.033 38.7333 216.033 33.4C216.033 30.2 215.433 27.6667 214.233 25.8C213.099 23.9333 211.066 23 208.133 23C204.933 23 202.066 23.8667 199.533 25.6C196.999 27.2667 195.033 29.4667 193.633 32.2C192.299 34.9333 191.633 37.8333 191.633 40.9C191.633 46.1667 193.099 50.5 196.033 53.9C198.966 57.2333 203.499 58.9 209.633 58.9C210.366 58.9 211.599 58.8333 213.333 58.7C214.066 58.6333 214.966 58.4333 216.033 58.1C217.099 57.7667 217.866 57.5333 218.333 57.4C221.199 56.4 223.299 55.9 224.633 55.9C225.633 55.9 226.399 56.1667 226.933 56.7C225.266 59.2333 222.766 61.1 219.433 62.3C216.166 63.4333 212.933 64 209.733 64Z" fill="white"/>
<path d="M254.457 56.9C253.924 56.9 253.457 56.2667 253.057 55C252.657 53.7333 252.29 51.9333 251.957 49.6L250.057 37.6L246.457 38.4C243.657 39 241.324 39.4667 239.457 39.8C237.59 40.0667 235.79 40.2 234.057 40.2C233.19 40.2 232.624 40 232.357 39.6C232.09 39.1333 231.957 38.5667 231.957 37.9C231.957 37.0333 232.057 36.4667 232.257 36.2C232.524 35.9333 233.124 35.6667 234.057 35.4C235.924 34.9333 238.357 34.4 241.357 33.8C244.357 33.1333 246.99 32.6 249.257 32.2C248.59 29.0667 248.057 26.2 247.657 23.6C247.257 20.9333 247.057 19.0333 247.057 17.9C247.057 17.4333 247.09 17.1667 247.157 17.1C247.89 16.4333 248.757 16.1 249.757 16.1C250.557 16.1 251.29 16.3 251.957 16.7L255.057 31.4C261.59 31.6 266.59 31.9333 270.057 32.4C273.524 32.8667 275.257 33.5667 275.257 34.5C275.257 35.3 274.89 36.1333 274.157 37C273.49 37.8 272.957 38.2 272.557 38.2L256.457 37L257.557 55.1C257.357 56.3 256.324 56.9 254.457 56.9Z" fill="#C66F30"/>
</svg>
